<svg xmlns="http://www.w3.org/2000/svg" width="84" height="28" fill="none" viewBox="0 0 84 28"><path fill="#2C2D2E" d="M2.934 20.75H0V2.766h2.934V9.22A4.65 4.65 0 0 1 6.76 7.23c2.883 0 5.052 2.321 5.052 5.51v8.01H8.878v-7.678c0-1.888-1.2-3.215-2.908-3.215-1.76 0-3.036 1.327-3.036 3.215zM16.602 5.597c-1.072 0-1.837-.74-1.837-1.786S15.53 2 16.602 2c1.046 0 1.811.765 1.811 1.811s-.765 1.786-1.811 1.786m1.454 15.154h-2.934V7.485h2.934V20.75Zm11.273-5.817h-8.087V12.18h8.087zm7.736 3.266h2.73l-.256 2.55h-2.474c-2.909 0-4.414-1.428-4.414-4.03v-6.684h-2.168V7.485h2.168l.74-3.827h2.194v3.827h3.954v2.551h-3.954v6.684c0 .995.485 1.48 1.48 1.48m17.274-4.235c0 .357-.026.663-.051.944H43.624c.28 2.04 1.76 3.418 4.005 3.418 1.556 0 2.781-.663 3.419-1.607l2.755.46c-.995 2.525-3.597 3.826-6.352 3.826-4.031 0-6.888-2.883-6.888-6.888S43.42 7.23 47.45 7.23s6.888 2.908 6.888 6.735ZM47.45 9.78c-1.786 0-3.164 1.122-3.648 2.832h7.347c-.485-1.659-1.862-2.832-3.7-2.832Zm15.323 11.226c-4.056 0-6.914-2.883-6.914-6.888s2.858-6.888 6.914-6.888c2.832 0 5.332 1.428 6.301 4.158l-2.755.46c-.561-1.149-1.837-1.94-3.367-1.94-2.373 0-4.031 1.735-4.031 4.21s1.658 4.21 4.03 4.21c1.582 0 2.883-.817 3.47-1.99l2.755.458c-.995 2.781-3.622 4.21-6.403 4.21m11.512-.256h-2.934V2.766h2.934V9.22a4.65 4.65 0 0 1 3.827-1.99c2.883 0 5.051 2.321 5.051 5.51v8.01h-2.934v-7.678c0-1.888-1.199-3.215-2.908-3.215-1.76 0-3.036 1.327-3.036 3.215z"/></svg>
