<svg height="53.29" viewBox="0 0 333.596 88.779" width="200" xmlns="http://www.w3.org/2000/svg"><g fill="#221f1f"><path d="m81.82 48.422c-.28.908-.521 1.91-.721 2.994-.157-1.135-.362-2.164-.613-3.078l-8.729-33.559h-18.62l15.503 50.897 7.388 1s-3.014 4.734-6.187 6.242c-1.106.529-3.39.844-4.858.844-1.991 0-3.783-.176-5.326-.525l-.608-.139v14.824l.397.082c2.479.514 4.929.775 7.289.775 6.131 0 11.184-1.471 15.014-4.371 3.816-2.891 8.668-8.428 11.266-15.375l15.776-54.254h-18.014z"/><path d="m212.996 13.881c-9.082 0-15.717 1.562-21.689 4.639l-.416.215 5.462 12.479.46-.201c5.628-2.477 10.322-3.732 13.949-3.732 3.834 0 5.699 1.895 5.699 5.789v.234l-8.014.256c-7.222.332-12.826 1.867-16.661 4.559-3.896 2.738-5.872 6.949-5.872 12.516 0 5.32 1.438 9.518 4.271 12.477 2.839 2.963 6.769 4.465 11.682 4.465 3.943 0 7.215-.559 9.724-1.658 2.427-1.066 4.832-3.027 7.153-5.836l3.298 6.596h12.982l-2-33.877c0-5.93-1.86-10.619-5.533-13.936-3.657-3.309-7.87-4.985-14.495-4.985zm3.555 30.088v3.431c0 2.023-.688 3.621-2.102 4.881-1.412 1.258-3.137 1.895-5.125 1.895-3.061 0-5.485-1.324-5.485-4.172 0-3.756 3.677-5.678 9.19-5.879z"/><path d="m244.974 66.676h18.564v-37.824h19.261l1-14.073h-38.825z"/><path d="m326.062 18.863c-3.658-3.307-7.872-4.982-14.496-4.982-9.082 0-15.717 1.562-21.69 4.639l-.418.215 5.467 12.479.458-.201c5.629-2.477 10.322-3.732 13.949-3.732 3.834 0 5.699 1.895 5.699 5.789v.234l-8.014.256c-7.22.332-12.827 1.867-16.661 4.559-3.898 2.738-5.872 6.949-5.872 12.516 0 5.32 1.438 9.518 4.272 12.477 2.839 2.963 6.768 4.465 11.68 4.465 3.945 0 7.216-.559 9.726-1.658 2.427-1.066 4.829-3.027 7.152-5.836l3.299 6.596h12.982l-2-33.877c.001-5.933-1.861-10.622-5.533-13.939zm-10.941 25.106v3.431c0 2.023-.688 3.621-2.102 4.881-1.412 1.258-3.137 1.895-5.125 1.895-3.061 0-5.487-1.324-5.487-4.172 0-3.756 3.679-5.678 9.192-5.879z"/><path d="m42.199 29.357c-4.855-3.383-12.011-5.1-21.264-5.1h-2.062v-9.017h23.383l2-15.24h-30.068l-14.148 14.15v52.525h21.568c8.967 0 15.94-1.887 20.724-5.607 4.824-3.75 7.27-9.211 7.27-16.23 0-6.848-2.491-12.057-7.403-15.481zm-13.75 20.877c-1.52 1.156-4.108 1.74-7.692 1.74h-1.883v-13.285h1.792c3.445 0 6.021.549 7.652 1.625 1.587 1.049 2.359 2.646 2.359 4.883.001 2.252-.728 3.901-2.228 5.037z"/></g><path d="m14.173 14.18h-14.173l14.173-14.172z" fill="#acd489"/><path d="m145.068 42.324c-.354-1.971-6.465-27.045-6.465-27.045h-22.679l-5.788 51.896h17.748l2.135-35.021.008.025c1.604 6.777 8.783 29.996 8.783 29.996h12.479s8.104-26.889 8.682-29.537l2.137 34.537h17.748l-5.788-51.896h-22.273s-6.297 24.953-6.727 27.045z" fill="#221f1f"/></svg>
